<?xml version="1.0" standalone="no"?>
<!DOCTYPE svg PUBLIC "-//W3C//DTD SVG 20010904//EN"
 "http://www.w3.org/TR/2001/REC-SVG-20010904/DTD/svg10.dtd">
<svg version="1.0" xmlns="http://www.w3.org/2000/svg"
 width="385.000000pt" height="385.000000pt" viewBox="0 0 385.000000 385.000000"
 preserveAspectRatio="xMidYMid meet">
<metadata>
Created by potrace 1.11, written by Peter Selinger 2001-2013
</metadata>
<g transform="translate(0.000000,385.000000) scale(0.100000,-0.100000)"
fill="#000000" stroke="none">
<path d="M332 3127 c-115 -42 -180 -183 -138 -297 7 -19 221 -381 476 -805
255 -424 468 -779 474 -790 119 -214 184 -292 263 -314 85 -24 195 13 246 82
13 17 77 121 142 229 65 109 121 196 125 193 4 -2 62 -97 130 -209 67 -113
134 -217 148 -231 91 -91 233 -95 325 -9 24 23 305 478 412 666 6 10 39 66 75
125 36 59 70 115 75 125 6 10 60 100 120 201 61 100 115 190 120 199 6 10 60
100 120 200 61 100 115 190 120 199 6 10 24 42 41 71 41 69 53 114 47 169 -10
83 -59 151 -137 188 -41 21 -53 21 -1596 20 -1173 0 -1563 -3 -1588 -12z"/>
</g>
</svg>
