<?xml version="1.0" encoding="iso-8859-1"?><!DOCTYPE svg PUBLIC "-//W3C//DTD SVG 1.1//EN" "http://www.w3.org/Graphics/SVG/1.1/DTD/svg11.dtd"><svg viewBox="0 0 552.77 552.77" xmlns="http://www.w3.org/2000/svg" xmlns:xlink="http://www.w3.org/1999/xlink"><style>:root>svg{display:none}:root>svg:target{display:block}</style><svg viewBox="0 0 292.359 292.359" id="caret" xmlns="http://www.w3.org/2000/svg"><path d="M222.979 133.331L95.073 5.424C91.456 1.807 87.178 0 82.226 0s-9.233 1.807-12.85 5.424c-3.617 3.617-5.424 7.898-5.424 12.847v255.813c0 4.948 1.807 9.232 5.424 12.847 3.621 3.617 7.902 5.428 12.85 5.428 4.949 0 9.23-1.811 12.847-5.428l127.906-127.907c3.614-3.613 5.428-7.897 5.428-12.847 0-4.948-1.813-9.229-5.428-12.846z"/></svg><svg viewBox="0 0 24 24" id="fb" xmlns="http://www.w3.org/2000/svg"><path d="M15.997 3.985h2.191V.169C17.81.117 16.51 0 14.996 0c-3.159 0-5.323 1.987-5.323 5.639V9H6.187v4.266h3.486V24h4.274V13.267h3.345l.531-4.266h-3.877V6.062c.001-1.233.333-2.077 2.051-2.077z"/></svg><svg viewBox="0 0 512 512" id="gp" xmlns="http://www.w3.org/2000/svg"><path d="M448 224v-64h-32v64h-64v32h64v64h32v-64h64v-32zM160 224v64h90.528c-13.216 37.248-48.8 64-90.528 64-52.928 0-96-43.072-96-96s43.072-96 96-96c22.944 0 45.024 8.224 62.176 23.168l42.048-48.256C235.424 109.824 198.432 96 160 96 71.776 96 0 167.776 0 256s71.776 160 160 160 160-71.776 160-160v-32H160z"/></svg><svg viewBox="0 0 552.77 552.77" id="in" xmlns="http://www.w3.org/2000/svg"><path d="M17.95 528.854h71.861c9.914 0 17.95-8.037 17.95-17.951V196.8c0-9.915-8.036-17.95-17.95-17.95H17.95C8.035 178.85 0 186.885 0 196.8v314.103c0 9.913 8.035 17.951 17.95 17.951zM17.95 123.629h71.861c9.914 0 17.95-8.036 17.95-17.95V41.866c0-9.914-8.036-17.95-17.95-17.95H17.95C8.035 23.916 0 31.952 0 41.866v63.813c0 9.914 8.035 17.95 17.95 17.95zM525.732 215.282c-10.098-13.292-24.988-24.223-44.676-32.791-19.688-8.562-41.42-12.846-65.197-12.846-48.268 0-89.168 18.421-122.699 55.27-6.672 7.332-11.523 5.729-11.523-4.186V196.8c0-9.915-8.037-17.95-17.951-17.95h-64.192c-9.915 0-17.95 8.035-17.95 17.95v314.103c0 9.914 8.036 17.951 17.95 17.951h71.861c9.915 0 17.95-8.037 17.95-17.951V401.666c0-45.508 2.748-76.701 8.244-93.574 5.494-16.873 15.66-30.422 30.488-40.649 14.83-10.227 31.574-15.343 50.24-15.343 14.572 0 27.037 3.58 37.393 10.741 10.355 7.16 17.834 17.19 22.436 30.104 4.604 12.912 6.904 41.354 6.904 85.33v132.627c0 9.914 8.035 17.951 17.949 17.951h71.861c9.914 0 17.949-8.037 17.949-17.951V333.02c0-31.445-1.982-55.607-5.941-72.48s-10.992-31.959-21.096-45.258z"/></svg><svg fill="none" viewBox="0 0 258 40" id="logo" xmlns="http://www.w3.org/2000/svg"><path fill-rule="evenodd" clip-rule="evenodd" d="M213.956 8.225c-2.23 0-4.021-1.791-4.021-4.094 0-2.267 1.827-4.131 4.094-4.131 2.266 0 4.13 1.791 4.13 4.058 0 2.302-1.864 4.167-4.203 4.167zm-76.435 24.052h-6.653v-28h6.762v7.676s2.998-2.559 6.909-2.559c6.616 0 10.528 5.593 10.528 11.698 0 6.25-3.985 11.734-10.309 11.734-2.96 0-5.154-.841-7.237-2.888v2.34zm-21.165.549c-6.909 0-11.661-4.204-11.661-11.734 0-6.8 4.862-11.698 11.478-11.698 6.47 0 11.039 4.277 11.039 12.283l.002.194.007.315c.008.275.015.514-.009.843h-15.791c.585 2.669 2.705 3.948 5.264 3.948 2.102 0 3.522-1.397 4.658-2.844l.204-.263s3.314 1.911 4.869 2.845l.431.262c-1.974 3.51-5.776 5.849-10.491 5.849zm-41.599-.549L66.203 9.833h7.165l4.46 12.429 4.094-12.429h5.446l4.314 12.502 4.423-12.502h7.055l-8.444 22.444H88.83l-4.168-12.063-4.02 12.063h-5.886zm41.343-17.18c2.12 0 3.29 1.023 4.094 3.18h-8.517c.841-2.084 2.12-3.18 4.423-3.18zm26.904.585c3.07 0 5.3 2.412 5.3 5.264 0 3.18-1.681 5.848-5.008 5.848-3.545 0-5.848-2.23-5.848-5.702 0-3.253 2.376-5.41 5.556-5.41zm26.758 17.363c-6.873 0-12.136-5.63-12.136-11.88 0-6.726 5.373-11.77 12.282-11.77 6.799 0 12.099 4.898 12.099 11.66 0 6.836-4.935 11.99-12.245 11.99zm.109-17.254c3.18 0 5.374 2.267 5.374 5.155 0 3.509-2.047 5.665-5.41 5.665-3.107 0-5.41-2.339-5.41-5.336 0-3.071 2.156-5.484 5.446-5.484zm29.207 16.486h-6.068l-9.394-22.444h7.603l4.898 13.123 4.606-13.123h7.165l-8.81 22.444zm18.314-22.444h-6.799v22.444h6.799V9.833zm3.655 11.332c0 6.25 5.264 11.88 12.136 11.88 7.311 0 12.246-5.154 12.246-11.99 0-6.762-5.301-11.66-12.1-11.66-6.908 0-12.282 5.044-12.282 11.77zm17.619-.22c0-2.887-2.193-5.154-5.373-5.154-3.29 0-5.447 2.413-5.447 5.484 0 2.997 2.303 5.337 5.41 5.337 3.363 0 5.41-2.157 5.41-5.666z" fill="#fff"/><path d="M252.082 24.182c2.303 0 4.203 1.9 4.203 4.203 0 2.303-1.9 4.204-4.203 4.204-2.303 0-4.204-1.9-4.204-4.204 0-2.303 1.901-4.203 4.204-4.203z" fill="#fff"/><path fill-rule="evenodd" clip-rule="evenodd" d="M36.65 34.484c-1.3 2.167-4.44 2.167-5.74 0L12.781 4.271h36.084c2.602 0 4.209 2.839 2.87 5.07L36.65 34.484z" fill="#FFD723"/><path fill-rule="evenodd" clip-rule="evenodd" d="M18.128 34.484c1.3 2.167 4.44 2.167 5.74 0L41.997 4.271H5.912c-2.602 0-4.209 2.839-2.87 5.07l15.086 25.143z" fill="#fff"/><path fill-rule="evenodd" clip-rule="evenodd" d="M12.781 4.271h29.215L27.39 28.617 12.781 4.271z" fill="#F6F6F6"/></svg><svg viewBox="0 0 512 512" id="tw" xmlns="http://www.w3.org/2000/svg"><path d="M512 97.248c-19.04 8.352-39.328 13.888-60.48 16.576 21.76-12.992 38.368-33.408 46.176-58.016-20.288 12.096-42.688 20.64-66.56 25.408C411.872 60.704 384.416 48 354.464 48c-58.112 0-104.896 47.168-104.896 104.992 0 8.32.704 16.32 2.432 23.936-87.264-4.256-164.48-46.08-216.352-109.792-9.056 15.712-14.368 33.696-14.368 53.056 0 36.352 18.72 68.576 46.624 87.232-16.864-.32-33.408-5.216-47.424-12.928v1.152c0 51.008 36.384 93.376 84.096 103.136-8.544 2.336-17.856 3.456-27.52 3.456-6.72 0-13.504-.384-19.872-1.792 13.6 41.568 52.192 72.128 98.08 73.12-35.712 27.936-81.056 44.768-130.144 44.768-8.608 0-16.864-.384-25.12-1.44C46.496 446.88 101.6 464 161.024 464c193.152 0 298.752-160 298.752-298.688 0-4.64-.16-9.12-.384-13.568 20.832-14.784 38.336-33.248 52.608-54.496z"/></svg></svg>